<?xml version="1.0" encoding="utf-8"?>
<!-- Generator: Adobe Illustrator 24.1.0, SVG Export Plug-In . SVG Version: 6.00 Build 0)  -->
<svg version="1.1" id="Layer_1" xmlns="http://www.w3.org/2000/svg" xmlns:xlink="http://www.w3.org/1999/xlink" x="0px" y="0px"
	 viewBox="0 0 511 511" style="enable-background:new 0 0 511 511;" xml:space="preserve">
<style type="text/css">
	.st0{fill:#07485E;}
	.st1{fill:#03232E;}
	.st2{fill:#DAD6EA;}
	.st3{fill:#C8B6DD;}
	.st4{fill:#FFF5F5;}
	.st5{fill:#EFE2DD;}
</style>
<path class="st0" d="M345.3,15v421.2c0,8.4-6.6,15-15,15H210.6c-8.4,0-15-6.6-15-15L16,15c0-8.4,6.6-15,15-15h299.4
	C338.7,0,345.3,6.6,345.3,15z"/>
<path class="st1" d="M345.3,15v421.2c0,8.4-6.6,15-15,15H210.6c-8.4,0-15-6.6-15-15l-44.9-104.8V0h179.6C338.7,0,345.3,6.6,345.3,15
	z"/>
<path class="st2" d="M217.2,91.3L37.5,1.5C33-0.6,27.3-0.6,23.2,2.1C18.7,5.1,16,9.9,16,15v421.2c0,6.6,4.2,12.3,10.2,14.1
	l124.6,41.6l55.1,18.3c4.4,1.8,10.1,0.8,13.5-1.8c3.9-3,6.3-7.5,6.3-12.3V104.8C225.6,99.1,222.3,94,217.2,91.3z"/>
<path class="st3" d="M225.6,104.8V496c0,4.8-2.4,9.3-6.3,12.3c-3.4,2.5-9,3.6-13.5,1.8l-55.1-18.3V58.1l66.5,33.2
	C222.3,94,225.6,99.1,225.6,104.8z"/>
<path class="st3" d="M383.2,329.6c-4.9-2.6-7.9-7.7-7.9-13.2v-15H270.5c-8.3,0-15-6.7-15-15v-59.9c0-8.3,6.7-15,15-15h104.8v-15
	c0-5.5,3-10.6,7.9-13.2c4.9-2.6,10.8-2.3,15.4,0.7l89.8,59.9c4.2,2.8,6.7,7.5,6.7,12.5c0,5-2.5,9.7-6.7,12.5l-89.8,59.9
	C393.9,331.9,388,332.2,383.2,329.6z"/>
<path class="st4" d="M165.7,226.6v59.9c0,8.4-6.6,15-15,15c-8.4,0-15-6.6-15-15v-59.9c0-8.4,6.6-15,15-15
	C159.1,211.6,165.7,218.2,165.7,226.6z"/>
<path class="st5" d="M165.7,226.6v59.9c0,8.4-6.6,15-15,15v-89.8C159.1,211.6,165.7,218.2,165.7,226.6z"/>
</svg>
